# xmcd
#
# Track frame offsets:
# 150
# 26100
# 39612
# 51481
# 64647
# 89814
# 106754
# 121298
# 133762
# 146929
# 158080
# 167743
# 183972
# 198581
# 210306
# 225789
# 238798
# 251906
# 269313
# 290215
# 301865
#
# Disc length: 4383 seconds
#
# Revision: 4
# Processed by: cddbd v1.5.2PL0 Copyright (c) Steve Scherf et al.
# Submitted via: Axialis_AX_CDPlayer 2.6
#
DISCID=3a111d15
DTITLE=Various Artist - Il Grande Blues - I Mille Colori Della Musica Nera
DYEAR=2004
DGENRE=Blues
TTITLE0=Sweet Home Chicago (Live) [Lonnie Brooks]
TTITLE1=Rollin' And Tumblin', pt. 1 [Muddy Waters]
TTITLE2=Shake Your Moneymaker [Johnny Winter]
TTITLE3=Another man done gone [Jorma Kaukonen]
TTITLE4=Shadow on my door [Peter Green Splinter Group]
TTITLE5=Make My Gateway [Charlie Musselwhite]
TTITLE6=Going Over The Hill (Live) [Willy De Ville]
TTITLE7=Boogie Chillen [John Lee Hoker]
TTITLE8=T'ain't Nobody's Bizness If I Do [Jimmy Whiterspoon]
TTITLE9=Cry Me A River [Dinah Washington]
TTITLE10=Shim-Sham-Shimmy [Champion JackDupree, feat. John Mayall and Eric Cla
TTITLE10=pton]
TTITLE11=Runnin' From The Devil [Joe Louis Walker]
TTITLE12=Homesick Blues [Charles Brown]
TTITLE13=Hallelujah I Love Her So [Ray Charles]
TTITLE14=Hey Bartender [Floyd Dixon]
TTITLE15=Strange Things Happen Everyday [Sister Rosetta Tharpe]
TTITLE16=That's All Right [Arthur "Big Boy" Crudup]
TTITLE17=She's Gone [Hound Dog Taylo]
TTITLE18=Hard Working Woman [Carey Bell]
TTITLE19=Key To The Highway [Big Bill Broonzy]
TTITLE20=Blues For Salvador [Santana]
EXTD=
EXTT0=
EXTT1=
EXTT2=
EXTT3=
EXTT4=
EXTT5=
EXTT6=
EXTT7=
EXTT8=
EXTT9=
EXTT10=
EXTT11=
EXTT12=
EXTT13=
EXTT14=
EXTT15=
EXTT16=
EXTT17=
EXTT18=
EXTT19=
EXTT20=
PLAYORDER=
